# xmcd
#
# Track frame offsets: 
#        150
#        7262
#        18350
#        21812
#        38162
#        45812
#        54582
#        59717
#        66222
#        83612
#        159567
#        164752
#        171592
#        174967
#
# Disc length: 2495 seconds
#
# Revision: 0
# Processed by: cddbd v1.5.2PL0 Copyright (c) Steve Scherf et al.
# Submitted via: ExactAudioCopyFreeDBPlugin 1.0
#
DISCID=b409bd0e
DTITLE=Gyorgy Kurtag - Portraitkonzert Salzburg 10.8.93 Symphonic Musi
DTITLE=c
DYEAR=1993
DGENRE=Avantgarde
TTITLE0=Einführung zu op27 - Pracludium Und Choral (1961-81) Für Klavi
TTITLE0=er
TTITLE1=Einführung zu op27 - Tamàs Blum In Memoriam (1992) Für Viola
TTITLE2=Einführung zu op27 - Antiphone In Fls (1973-76) Für Klavier
TTITLE3=Einführung zu op27 - Vier Mikroludlen Op.13.4, 6, 10, 5 (1977-
TTITLE3=78) Für Streichquartett
TTITLE4=Einführung zu op27 - Il Pleut Sur La Ville (1981) Für Sopran U
TTITLE4=nd Klavier
TTITLE5=Einführung zu op27 - Lebewohl Op. 26.4 (1986-87) Für Sopran Un
TTITLE5=d Klavier
TTITLE6=Einführung zu op27 - Les Adieux Op. 12.7 (1975) Für Sopran Und
TTITLE6=Violine
TTITLE7=Einführung zu op27 - János Pilinszky: Gérard De Nerval (1986) 
TTITLE7=Für Violoncello
TTITLE8=Einführung zu op27 - The Answered Unanswered Question Op.31B-M
TTITLE8=essage-Hommage À Frances-Marie Uitti (1989)
TTITLE9=Einführung zu op27 - II. Doppelkonzert Op.27 No.2 (1989-90)
TTITLE10=Requiem Po Drugu (Requiem Fur Einen Freund) op26 - 1. O Gott,
TTITLE10=Wie Plotzlich Diese Stille
TTITLE11=Requiem Po Drugu (Requiem Fur Einen Freund) op26 - 2. Eine Gr
TTITLE11=ausame Romanze
TTITLE12=Requiem Po Drugu (Requiem Fur Einen Freund) op26 - 3. Es War 
TTITLE12=Meine Stärke
TTITLE13=Requiem Po Drugu (Requiem Fur Einen Freund) op26 - 4. Gott Sc
TTITLE13=hütze Dich, Mein Geliebter...
EXTD=
EXTT0=
EXTT1=
EXTT2=
EXTT3=
EXTT4=
EXTT5=
EXTT6=
EXTT7=
EXTT8=
EXTT9=
EXTT10=
EXTT11=
EXTT12=
EXTT13=
PLAYORDER=
